HIERARCHY
ROOT Hips
{
 OFFSET 0.000000 0.000000 0.000000
 CHANNELS 6 Xposition Yposition Zposition Yrotation Xrotation Zrotation
 JOINT Chest
 {
  OFFSET 0.000000 14.374500 -0.011500
  CHANNELS 3 Yrotation Xrotation Zrotation
  JOINT Chest2
  {
   OFFSET 0.000000 9.203400 0.023400
   CHANNELS 3 Yrotation Xrotation Zrotation
   JOINT Chest3
   {
    OFFSET 0.000000 9.162700 0.000000
    CHANNELS 3 Yrotation Xrotation Zrotation
    JOINT Chest4
    {
     OFFSET 0.000000 9.153300 0.000000
     CHANNELS 3 Yrotation Xrotation Zrotation
     JOINT Neck
     {
      OFFSET 0.000000 13.353600 0.000000
      CHANNELS 3 Yrotation Xrotation Zrotation
      JOINT Head
      {
       OFFSET 0.000000 8.573800 0.049400
       CHANNELS 3 Yrotation Xrotation Zrotation
       End Site
       {
        OFFSET 0.000000 16.219200 0.026100
       }
      }
     }
     JOINT RightCollar
     {
      OFFSET -2.497100 8.876100 0.000000
      CHANNELS 3 Yrotation Xrotation Zrotation
      JOINT RightShoulder
      {
       OFFSET -12.289200 0.000000 0.000000
       CHANNELS 3 Yrotation Xrotation Zrotation
       JOINT RightElbow
       {
        OFFSET 0.000000 -28.194900 0.000000
        CHANNELS 3 Yrotation Xrotation Zrotation
        JOINT RightWrist
        {
         OFFSET 0.000000 -23.009700 0.007900
         CHANNELS 3 Yrotation Xrotation Zrotation
         End Site
         {
          OFFSET 0.000000 -17.151500 0.000000
         }
        }
       }
      }
     }
     JOINT LeftCollar
     {
      OFFSET 2.497100 8.876100 0.000000
      CHANNELS 3 Yrotation Xrotation Zrotation
      JOINT LeftShoulder
      {
       OFFSET 12.289200 0.000000 0.000000
       CHANNELS 3 Yrotation Xrotation Zrotation
       JOINT LeftElbow
       {
        OFFSET 0.000000 -28.194900 0.000000
        CHANNELS 3 Yrotation Xrotation Zrotation
        JOINT LeftWrist
        {
         OFFSET 0.000000 -23.009700 0.007900
         CHANNELS 3 Yrotation Xrotation Zrotation
         End Site
         {
          OFFSET 0.000000 -17.151500 0.000000
         }
        }
       }
      }
     }
    }
   }
  }
 }
 JOINT RightHip
 {
  OFFSET -11.777600 0.056700 0.005700
  CHANNELS 3 Yrotation Xrotation Zrotation
  JOINT RightKnee
  {
   OFFSET 0.000000 -39.966000 -0.004200
   CHANNELS 3 Yrotation Xrotation Zrotation
   JOINT RightAnkle
   {
    OFFSET 0.000000 -41.981900 0.027400
    CHANNELS 3 Yrotation Xrotation Zrotation
    JOINT RightToe
    {
     OFFSET 0.000000 -9.910600 16.950100
     CHANNELS 3 Yrotation Xrotation Zrotation
     End Site
     {
      OFFSET 0.000000 -1.461000 6.191600
     }
    }
   }
  }
 }
 JOINT LeftHip
 {
  OFFSET 11.777600 0.056700 0.005700
  CHANNELS 3 Yrotation Xrotation Zrotation
  JOINT LeftKnee
  {
   OFFSET 0.000000 -39.966000 -0.004200
   CHANNELS 3 Yrotation Xrotation Zrotation
   JOINT LeftAnkle
   {
    OFFSET 0.000000 -41.981900 0.027400
    CHANNELS 3 Yrotation Xrotation Zrotation
    JOINT LeftToe
    {
     OFFSET 0.000000 -9.910600 16.950100
     CHANNELS 3 Yrotation Xrotation Zrotation
     End Site
     {
      OFFSET 0.000000 -1.461000 6.191600
     }
    }
   }
  }
 }
}
MOTION
Frames: 9
Frame Time: 0.008333
0.000000 91.618700 0.000000 0.000000 -5.767877 0.000000 0.000000 11.653817 0.000000 0.000000 -5.885947 0.000000 0.000000 -0.000000 0.000000 0.000000 -0.000000 0.000000 0.000000 12.528835 0.000000 0.000000 0.711642 0.000000 0.000000 -0.000000 0.000000 0.000000 0.000000 -90.000000 0.000000 -2.309062 0.000000 0.000000 2.309062 0.000000 0.000000 -0.000000 0.000000 0.000000 -0.000000 90.000000 0.000000 -2.309062 0.000000 0.000000 2.309062 0.000000 0.000000 8.520406 0.000000 0.000000 1.905762 0.000000 -0.000000 -4.658285 0.000000 0.000000 -0.000000 0.000000 0.000000 8.520406 0.000000 0.000000 1.905762 0.000000 -0.000000 -4.658285 0.000000 0.000000 -0.000000 0.000000
-1.224509 152.763505 76.972256 177.124749 -46.588523 -3.004174 4.599032 26.775572 3.514156 0.597860 4.634181 0.499397 0.950282 7.326960 0.809448 3.317750 21.805331 2.906694 -3.808954 11.924913 -2.213935 -3.559765 -13.132615 -1.470120 0.057597 -4.848617 1.015527 5.462683 -11.012856 -9.065585 38.535041 -70.040677 -20.570934 35.078582 25.890296 -1.293429 -9.616336 -8.352296 -0.391375 -5.963498 -8.966833 8.116138 -9.056132 -64.233294 -18.454807 -13.618962 0.697584 26.838558 7.985151 -30.664512 1.624531 -79.367593 83.239307 -83.725857 0.615423 -26.343461 9.800391 0.034898 -0.398037 0.070159 -1.204164 -27.399085 -4.158768 146.340283 71.578690 156.809879 -0.735971 -3.773994 -7.729298 0.190983 -6.777745 -0.866900
-2.262307 145.690540 78.562328 177.424156 -46.511952 -3.277751 4.493793 26.739217 3.632839 0.562651 4.614729 0.486401 1.004687 7.352727 0.828020 3.320138 21.802620 2.912945 -3.744176 11.844162 -2.200479 -3.474979 -13.208632 -1.476629 0.001256 -4.883117 1.018276 5.474455 -10.969331 -9.046591 38.429845 -70.049848 -20.477138 35.075838 25.906284 -1.375188 -9.668080 -8.384994 -0.379921 -5.909080 -8.924286 8.096141 -9.173524 -64.256984 -18.331322 -13.623266 0.659905 26.851556 7.766455 -30.747334 1.728831 -79.641929 83.214486 -84.060431 0.588636 -26.476159 9.838298 0.005020 -0.262308 0.002998 -1.421556 -27.440390 -4.038983 146.386342 71.634148 156.851273 -0.737552 -3.718753 -7.721828 0.114331 0.145405 0.066866
-3.123195 139.867173 79.867976 177.653239 -46.449581 -3.454822 4.414985 26.719493 3.702692 0.581252 4.623641 0.494629 0.986234 7.343437 0.823684 3.322315 21.801806 2.918148 -3.657718 11.767029 -2.188288 -3.385118 -13.289290 -1.483196 -0.035593 -4.910735 1.018719 5.489871 -10.927752 -9.032541 38.450912 -70.070179 -20.553958 35.012397 25.932756 -1.377192 -9.702854 -8.412284 -0.372550 -5.855793 -8.883651 8.074162 -9.291206 -64.297488 -18.242294 -13.619254 0.639666 26.898320 7.618892 -30.807731 1.779906 -79.868217 83.185655 -84.338068 0.528413 -26.591305 9.889821 0.001463 -0.153804 0.000872 -1.578876 -27.473986 -3.981608 146.336481 71.660686 156.730919 -0.692558 -3.670297 -7.617932 0.006938 0.097680 0.004047
-3.740148 135.663729 80.807092 177.811588 -46.405124 -3.583387 4.387274 26.715387 3.776819 0.598528 4.633353 0.502211 0.968894 7.333981 0.819718 3.323733 21.801581 2.922793 -3.566442 11.688406 -2.174207 -3.290542 -13.371363 -1.488856 0.011712 -4.886091 1.007239 5.428288 -10.940930 -9.021858 38.468981 -70.092522 -20.630791 35.001371 25.944488 -1.381882 -9.692706 -8.427344 -0.374869 -5.850289 -8.857590 8.055134 -9.400549 -64.330408 -18.143612 -13.616589 0.607022 26.935379 7.512175 -30.850527 1.828945 -80.008900 83.160692 -84.529041 0.495550 -26.667753 9.933314 -0.013626 -0.080755 -0.007958 -1.670277 -27.498091 -3.899519 146.419404 71.701531 156.777389 -0.709706 -3.628776 -7.574064 -0.018801 0.039632 -0.010999
-4.134118 133.008766 81.397000 177.905734 -46.363594 -3.627096 4.385274 26.714654 3.807498 0.598676 4.633235 0.503119 0.969159 7.333824 0.821121 3.325052 21.800909 2.927180 -3.470931 11.609616 -2.158172 -3.191842 -13.453574 -1.493423 0.025115 -4.874008 1.005138 5.404326 -10.936459 -9.019189 38.377433 -70.126606 -20.563291 34.963645 25.997231 -1.391325 -9.683646 -8.440572 -0.378186 -5.849944 -8.832700 8.038355 -9.498627 -64.368310 -18.063115 -13.610004 0.583176 26.984062 7.465125 -30.888371 1.816247 -80.114600 83.156631 -84.696735 0.504538 -26.701217 9.950920 -0.051864 -0.052699 -0.030309 -1.695969 -27.527774 -3.871678 146.520057 71.738587 156.863775 -0.743431 -3.613610 -7.573170 -0.010398 0.003418 -0.006080
-4.351105 131.542680 81.723694 178.060260 -46.286834 -3.706278 4.335200 26.682113 3.825669 0.562993 4.613649 0.491485 1.005836 7.352238 0.832472 3.325772 21.799552 2.931410 -3.371648 11.531420 -2.141103 -3.089424 -13.535110 -1.497728 0.022246 -4.867075 1.007933 5.395070 -10.918110 -9.020660 38.371272 -70.172968 -20.607867 34.937821 26.024738 -1.393399 -9.607888 -8.425890 -0.389411 -5.920103 -8.832992 8.024798 -9.579230 -64.406908 -17.995975 -13.605321 0.561834 27.030529 7.385492 -30.951506 1.816579 -80.219514 83.113740 -84.843499 0.484193 -26.713148 9.917729 -0.042204 -0.031460 -0.024669 -1.768230 -27.599193 -3.869533 146.609950 71.763238 156.957040 -0.781076 -3.632752 -7.588542 0.020646 0.011386 0.012073
-4.450541 130.847588 81.872923 178.155780 -46.245373 -3.753516 4.334942 26.682324 3.858135 0.529097 4.592822 0.481501 1.039913 7.370698 0.841659 3.325481 21.797562 2.934493 -3.270689 11.455205 -2.123239 -2.985470 -13.614473 -1.501483 0.022151 -4.856648 1.011215 5.375484 -10.896694 -9.021254 38.366833 -70.231164 -20.651426 34.938630 26.047650 -1.401016 -9.569393 -8.422218 -0.391411 -5.951584 -8.820783 8.006909 -9.658338 -64.446244 -17.929610 -13.601263 0.540855 27.075088 7.336842 -30.981261 1.826948 -80.263408 83.072868 -84.906657 0.440352 -26.720624 9.911084 -0.007459 -0.016091 -0.004361 -1.804831 -27.638117 -3.845853 146.703286 71.783715 157.019978 -0.792415 -3.636345 -7.549033 0.011114 0.003875 0.006498
-4.486624 130.566339 81.927132 178.212591 -46.220988 -3.779829 4.366963 26.697995 3.899858 0.579687 4.620254 0.498121 0.987863 7.340481 0.829631 3.325675 21.795568 2.937044 -3.171389 11.383194 -2.104921 -2.883501 -13.689358 -1.504414 -0.012858 -4.871842 1.018691 5.380626 -10.845513 -9.019298 38.353551 -70.300464 -20.686859 34.950944 26.067782 -1.398627 -9.553101 -8.427957 -0.388797 -5.960231 -8.800595 7.982467 -9.750552 -64.483044 -17.850197 -13.595098 0.517480 27.117301 7.307762 -30.985126 1.896795 -80.286892 82.983154 -84.989193 0.403358 -26.721052 9.919063 0.011348 -0.009101 0.006634 -1.817641 -27.659337 -3.814530 146.771393 71.795410 157.066807 -0.820567 -3.655354 -7.547889 0.008876 -0.007051 0.005189
